<?xml version="1.0" encoding="UTF-8"?><svg id="_レイヤー_2" xmlns="http://www.w3.org/2000/svg" width="563.34" height="554.47" viewBox="0 0 563.34 554.47"><defs><style>.cls-1{fill:none;stroke:#e6e6e6;stroke-miterlimit:10;stroke-width:33px;}.cls-2{fill:#e6e6e6;stroke-width:0px;}</style></defs><g id="_レイヤー_1-2"><path class="cls-2" d="M407.51,157.09v364.38H33V157.09h374.51M428.49,124.09H12.02c-6.64,0-12.02,5.38-12.02,12.02v406.35c0,6.64,5.38,12.02,12.02,12.02h416.47c6.64,0,12.02-5.38,12.02-12.02V136.11c0-6.64-5.38-12.02-12.02-12.02h0Z"/><path class="cls-1" d="M106.33,124.09V28.52c0-6.64,5.38-12.02,12.02-12.02h416.47c6.64,0,12.02,5.38,12.02,12.02v406.35c0,6.64-5.38,12.02-12.02,12.02h-94.31"/></g></svg>